<svg height="30px" width="30px" version="1.1" viewBox="0 0 128 128" xmlns="http://www.w3.org/2000/svg">
    <g>
        <g>
            <path d="M4,51.7l30.1,38.2c4.2,5.3,10.5,8.4,17.3,8.4c1.3,0,2.5-0.1,3.8-0.3L88,92.2c4.6-0.8,8.4-4.2,9.6-8.8    l8.4-32.2V48H4V51.7z M101.7,52l-8,30.4c-0.8,3-3.3,5.3-6.4,5.9L54.4,94c-1,0.2-2,0.3-3.1,0.3c-5.6,0-10.7-2.5-14.1-6.9L9.3,52    H101.7z" />
            <path d="M124,56.5h-16.5l-9.6,36.9l-57.7,10.4C38,96.9,31.5,92,24,92c-9.4,0-17,7.6-17,17s7.6,17,17,17    s17-7.6,17-17c0-0.4,0-0.9-0.1-1.3l30.4-5.5l8.9,19c1.3,2.9,4.1,4.6,7.2,4.6c0.2,0,0.5,0,0.7,0c3.4-0.3,6.2-2.6,7-5.9l15.4-59.4    H124V56.5z M37,109c0,7.2-5.8,13-13,13s-13-5.8-13-13s5.8-13,13-13c5.6,0,10.3,3.5,12.2,8.5L22.1,107l0.7,3.9l14.2-2.6    C37,108.6,37,108.8,37,109z M91.3,118.9c-0.5,2-2.2,2.8-3.5,3c-1.4,0.1-3.1-0.4-4-2.3l-8.4-18.1l21.4-3.9L91.3,118.9z" />
        </g>
    </g>
</svg>